 http://www.imdb.com/title/tt0903036/
 
http://www.westbrickmurders.com/

User Rating: (awaiting 5 votes) 

Action,Crime,Drama,Thriller 

Director:Shaun Rana

Cast:Daniell Edwards/Sami Darr/Anna Bård/Eric Roberts, and others..

Plot:
The town of Westbrick is a rough place to live in. It is here that the young rookie cop Matthew lives with his wife. Meanwhile, notorious serial killers Billy and Barbara embark on a killing spree in order to get notoriety. Matthew gets his first assignment with his much older partner William when he unfortunately crosses paths with Billy and Barbara. William gets killed in the line of duty by Billy and Barbara but that's not enough for them: they torture and brutally murder Matthew's wife. Things get even worse for young Matthew when he loses his job, being wrongfully blamed for William's death and now charged with murder. Matthew finds himself isolated; there is no reason to count on a corrupt legal system and 
even less of a chance of being found innocent. He goes on a rampage for vengeance and slowly turns into a mad psychopath just like Billy and Barbara. 

Info:

General
Complete name                    : Westbrick Murders-AC3-5,1-DVDRip[Eng]2010.avi
Format                           : AVI
Format/Info                      : Audio Video Interleave
File size                        : 1.36 GiB
Duration                         : 1h 31mn
Overall bit rate                 : 2 131 Kbps
Writing application              : VirtualDubMod 1.5.4.1 (build 2178/release)
Writing library                  : VirtualDubMod build 2178/release

Video
ID                               : 0
Format                           : MPEG-4 Visual
Format profile                   : Simple@L3
Format settings, BVOP            : No
Format settings, QPel            : No
Format settings, GMC             : No warppoints
Format settings, Matrix          : Default (H.263)
Codec ID                         : XVID
Codec ID/Hint                    : XviD
Duration                         : 1h 31mn
Bit rate                         : 1 673 Kbps
Width                            : 640 pixels
Height                           : 352 pixels
Display aspect ratio             : 16:9
Frame rate                       : 25.000 fps
Resolution                       : 24 bits
Colorimetry                      : 4:2:0
Scan type                        : Progressive
Bits/(Pixel*Frame)               : 0.297
Stream size                      : 1.07 GiB (79%)
Writing library                  : XviD 1.1.2 (UTC 2006-11-01)

Audio
ID                               : 1
Format                           : AC-3
Format/Info                      : Audio Coding 3
Codec ID                         : 2000
Duration                         : 1h 31mn
Bit rate mode                    : Constant
Bit rate                         : 448 Kbps
Channel(s)                       : 6 channels
Channel positions                : Front: L C R, Surround: L R, LFE
Sampling rate                    : 48.0 KHz
Stream size                      : 293 MiB (21%)
Alignment                        : Split accross interleaves
Interleave, duration             : 40 ms (1.00 video frame)
Interleave, preload duration     : 500 ms

Enjoy...